<svg width="15" height="15" viewBox="0 0 15 15" fill="none" xmlns="http://www.w3.org/2000/svg">
<path d="M10.2353 6.29618C10.276 6.33681 10.3083 6.38507 10.3303 6.43818C10.3523 6.49129 10.3636 6.54822 10.3636 6.60571C10.3636 6.66321 10.3523 6.72014 10.3303 6.77325C10.3083 6.82636 10.276 6.87461 10.2353 6.91524L7.17282 9.97774C7.13218 10.0184 7.08393 10.0507 7.03082 10.0727C6.97771 10.0947 6.92078 10.1061 6.86328 10.1061C6.80579 10.1061 6.74886 10.0947 6.69575 10.0727C6.64264 10.0507 6.59438 10.0184 6.55375 9.97774L5.24125 8.66524C5.15916 8.58315 5.11304 8.47181 5.11304 8.35571C5.11304 8.23962 5.15916 8.12827 5.24125 8.04618C5.32335 7.96409 5.43469 7.91797 5.55078 7.91797C5.66688 7.91797 5.77822 7.96409 5.86032 8.04618L6.86328 9.0497L9.61625 6.29618C9.65688 6.2555 9.70514 6.22323 9.75825 6.20122C9.81136 6.1792 9.86829 6.16787 9.92578 6.16787C9.98328 6.16787 10.0402 6.1792 10.0933 6.20122C10.1464 6.22323 10.1947 6.2555 10.2353 6.29618ZM13.4258 7.91821C13.4258 9.04309 13.0922 10.1427 12.4673 11.078C11.8423 12.0133 10.9541 12.7423 9.9148 13.1728C8.87554 13.6033 7.73197 13.7159 6.62871 13.4964C5.52544 13.277 4.51203 12.7353 3.71661 11.9399C2.9212 11.1445 2.37952 10.1311 2.16007 9.02779C1.94061 7.92452 2.05325 6.78096 2.48372 5.7417C2.91419 4.70245 3.64317 3.81418 4.57848 3.18923C5.51378 2.56428 6.6134 2.23071 7.73828 2.23071C9.24621 2.23231 10.6919 2.83203 11.7582 3.8983C12.8245 4.96457 13.4242 6.41028 13.4258 7.91821ZM12.5508 7.91821C12.5508 6.96639 12.2685 6.03594 11.7397 5.24453C11.2109 4.45312 10.4593 3.83629 9.57995 3.47204C8.70058 3.1078 7.73295 3.01249 6.79941 3.19818C5.86588 3.38388 5.00837 3.84222 4.33533 4.51526C3.66229 5.1883 3.20395 6.04581 3.01825 6.97934C2.83256 7.91287 2.92787 8.88051 3.29211 9.75988C3.65636 10.6392 4.27319 11.3909 5.0646 11.9197C5.85601 12.4485 6.78646 12.7307 7.73828 12.7307C9.01419 12.7293 10.2374 12.2218 11.1396 11.3196C12.0418 10.4174 12.5493 9.19412 12.5508 7.91821Z" fill="#C3C3C4"/>
</svg>
